<?xml version="1.0" encoding="UTF-8"?>
<svg width="62px" height="62px" viewBox="0 0 62 62" version="1.1" xmlns="http://www.w3.org/2000/svg" xmlns:xlink="http://www.w3.org/1999/xlink">
    <!-- Generator: Sketch 60 (88103) - https://sketch.com -->
    <title>check-in</title>
    <desc>Created with Sketch.</desc>
    <defs>
        <rect id="path-1" x="0" y="0" width="50" height="50" rx="8"></rect>
        <filter x="-22.0%" y="-14.0%" width="144.0%" height="144.0%" filterUnits="objectBoundingBox" id="filter-2">
            <feOffset dx="0" dy="4" in="SourceAlpha" result="shadowOffsetOuter1"></feOffset>
            <feGaussianBlur stdDeviation="3" in="shadowOffsetOuter1" result="shadowBlurOuter1"></feGaussianBlur>
            <feColorMatrix values="0 0 0 0 0   0 0 0 0 0   0 0 0 0 0  0 0 0 0.15 0" type="matrix" in="shadowBlurOuter1"></feColorMatrix>
        </filter>
        <path d="M12,0 C17.5228474,0 22,4.47715241 22,10 C22,13.3716045 20.1975984,16.6760073 17.2259527,19.8127445 C16.2070021,20.8883035 15.118253,21.8681776 14.0291768,22.735405 C13.6473986,23.0394136 13.2921737,23.3081093 12.9722093,23.5391947 C12.777224,23.6800174 12.6351454,23.77842 12.5547002,23.8320502 C12.2188008,24.0559831 11.7811992,24.0559831 11.4452998,23.8320502 C11.3648546,23.77842 11.222776,23.6800174 11.0277907,23.5391947 C10.7078263,23.3081093 10.3526014,23.0394136 9.97082322,22.735405 C8.88174698,21.8681776 7.7929979,20.8883035 6.77404732,19.8127445 C3.80240157,16.6760073 2,13.3716045 2,10 C2,4.47715241 6.47715256,0 12,0 Z M12,2 C7.58172205,2 4,5.58172193 4,10 C4,12.7533953 5.57259843,15.6364924 8.22595268,18.4372552 C9.1757521,19.4398213 10.196378,20.3583846 11.2166768,21.1708447 C11.4951711,21.3926087 11.7576885,21.5936102 12,21.7726167 C12.2423115,21.5936102 12.5048289,21.3926087 12.7833232,21.1708447 C13.803622,20.3583846 14.8242479,19.4398213 15.7740473,18.4372552 C18.4274016,15.6364924 20,12.7533953 20,10 C20,5.58172193 16.418278,2 12,2 Z M12,5.99999987 C14.209139,5.99999987 16,7.79086087 16,9.99999987 C16,12.2091389 14.209139,13.9999999 12,13.9999999 C9.790861,13.9999999 8,12.2091389 8,9.99999987 C8,7.79086087 9.790861,5.99999987 12,5.99999987 Z M12,7.99999987 C10.8954305,7.99999987 10,8.89543037 10,9.99999987 C10,11.1045694 10.8954305,11.9999999 12,11.9999999 C13.1045695,11.9999999 14,11.1045694 14,9.99999987 C14,8.89543037 13.1045695,7.99999987 12,7.99999987 Z" id="path-3"></path>
    </defs>
    <g id="Page-1" stroke="none" stroke-width="1" fill="none" fill-rule="evenodd">
        <g id="profile-loggedIn" transform="translate(-157.000000, -737.000000)">
            <g id="nav" transform="translate(0.000000, 728.000000)">
                <g id="check-in" transform="translate(163.000000, 11.000000)">
                    <g id="Rectangle">
                        <use fill="black" fill-opacity="1" filter="url(#filter-2)" xlink:href="#path-1"></use>
                        <use fill="#38D39F" fill-rule="evenodd" xlink:href="#path-1"></use>
                    </g>
                    <g id="map-pin" transform="translate(12.500000, 13.000000)">
                        <mask id="mask-4" fill="white">
                            <use xlink:href="#path-3"></use>
                        </mask>
                        <use id="Combined-Shape" fill="#000000" fill-rule="nonzero" xlink:href="#path-3"></use>
                        <g id="COLOR/-white" mask="url(#mask-4)" fill="#FFFFFF" fill-rule="evenodd">
                            <rect id="Rectangle" x="0" y="0" width="24" height="24"></rect>
                        </g>
                    </g>
                </g>
            </g>
        </g>
    </g>
</svg>