<?xml version="1.0" encoding="UTF-8"?>
<svg width="32px" height="32px" viewBox="0 0 32 32" version="1.1" xmlns="http://www.w3.org/2000/svg" xmlns:xlink="http://www.w3.org/1999/xlink">
    <!-- Generator: Sketch 60 (88103) - https://sketch.com -->
    <title>undraw_female_avatar_l3ey (3)</title>
    <desc>Created with Sketch.</desc>
    <g id="Page-1" stroke="none" stroke-width="1" fill="none" fill-rule="evenodd">
        <g id="profile-loggedIn-leaderboard" transform="translate(-59.000000, -372.000000)" fill-rule="nonzero">
            <g id="4th" transform="translate(20.000000, 372.000000)">
                <g id="undraw_female_avatar_l3ey-(3)" transform="translate(39.000000, 0.000000)">
                    <path d="M31.9999979,16 C31.9999979,21.6960947 29.023432,26.6972781 24.5405879,29.5323077 C24.122134,29.7973964 23.6907361,30.0427613 23.2463943,30.2684024 C23.1460336,30.32 23.0452109,30.3697041 22.9434286,30.4184615 C22.8596417,30.4591716 22.7749112,30.4989349 22.6901813,30.5382249 C21.8100119,30.9441754 20.8944602,31.2685324 19.9550334,31.5072189 C19.8939683,31.5228402 19.8324256,31.5379882 19.7708847,31.5526627 C19.7249676,31.5640237 19.6785794,31.5749112 19.6321898,31.5853254 C19.626469,31.5871909 19.6206136,31.5886152 19.614675,31.5895858 C19.5195271,31.6118343 19.4243839,31.6331361 19.3282878,31.6525444 C19.2743167,31.6639053 19.2203588,31.6752663 19.166392,31.6861538 C19.1337264,31.6932544 19.1005931,31.6994083 19.0679328,31.7055621 C19.0267437,31.7136095 18.9860393,31.7211834 18.9448511,31.7292308 C18.9221292,31.7339645 18.8994073,31.7377515 18.8762121,31.7415385 C18.8241363,31.7510059 18.7720724,31.7604734 18.7204724,31.7694675 C18.6324251,31.7846154 18.543431,31.7992899 18.4549103,31.8125444 C18.3905316,31.8224852 18.3266263,31.8319527 18.2622476,31.8409467 C18.1865032,31.8518343 18.1107707,31.8617751 18.0345524,31.8712426 C18.0137269,31.8745562 17.9928956,31.8769231 17.9720639,31.8792899 C17.9450902,31.882601 17.9181079,31.8859146 17.8911172,31.8892308 C17.8087503,31.8991716 17.7254367,31.9081657 17.6425964,31.9166864 C17.5886373,31.9223669 17.5346741,31.927574 17.4807067,31.9323077 C17.4111209,31.9389325 17.341538,31.9446154 17.271476,31.9502959 C17.1862722,31.9569231 17.1015351,31.9630769 17.0158547,31.968284 C16.9609477,31.9715976 16.9060322,31.9749112 16.8506476,31.9777515 C16.7095825,31.9853254 16.5685174,31.9905325 16.4265056,31.9943195 C16.355973,31.996213 16.2849671,31.9976331 16.2139612,31.9985799 L16.2125411,31.9985799 C16.1420085,31.9995266 16.0710026,32 15.9999979,32 C11.7558692,32.0021672 7.6849476,30.3171536 4.68389616,27.3161015 C1.68284471,24.3150494 -0.00216804851,20.2441275 -2.0895756e-06,16 C-2.0895756e-06,7.1635503 7.16355408,2.27373675e-13 15.9999979,2.27373675e-13 C24.8364459,2.27373675e-13 31.9999979,7.1635503 31.9999979,16 Z" id="Path" fill="#6C63FF"></path>
                    <path d="M26.1353846,9.76142012 C25.3136095,10.3630769 24.5955072,11.1706509 23.9678144,12.1221302 C22.1813056,14.8293491 21.126631,18.703432 20.5036696,22.3233136 C20.3446163,23.248284 20.2134921,24.1566864 20.1060364,25.0243787 C19.7358556,28.0089941 19.6397643,30.5178698 19.6146755,31.5895858 C19.5195276,31.6118343 19.4243844,31.6331361 19.3282883,31.6525444 C19.3448492,30.8321893 19.4040208,29.056568 19.6127853,26.8435503 C19.6397647,26.5576312 19.6694275,26.2647713 19.7017737,25.9649704 C19.7377501,25.627929 19.7775134,25.2833136 19.8210637,24.9311243 C19.9110045,24.204497 20.01704,23.4513609 20.1424838,22.6854438 C20.1623617,22.5647337 20.1824011,22.4448126 20.2026021,22.3256805 C20.9917108,17.696568 22.2026021,14.1813018 23.8158566,11.8220118 C24.4672175,10.8686391 25.1842204,10.1050888 25.9668653,9.53136095 L26.1353846,9.76142012 Z" id="Path" fill="#000000" opacity="0.2"></path>
                    <path d="M25.961654,22.3692308 C24.7304114,23.2714793 24.0407096,25.2624852 23.6553818,27.2018935 C23.4591277,28.2151734 23.3225628,29.2391065 23.2463929,30.2684024 C23.1460322,30.32 23.0452095,30.3697041 22.9434272,30.4184615 C23.0193973,29.2464548 23.1751842,28.080991 23.4097041,26.9301775 C23.8149155,25.0092308 24.5306509,23.0646154 25.7931361,22.139645 L25.961654,22.3692308 Z" id="Path" fill="#000000" opacity="0.2"></path>
                    <circle id="Oval" fill="#000000" opacity="0.2" cx="27.7272549" cy="8.33049325" r="1.42431101"></circle>
                    <circle id="Oval" fill="#000000" opacity="0.2" cx="27.2685728" cy="20.5912819" r="1.42431101"></circle>
                    <path d="M22.0726869,10.722906 C22.3747205,12.4269212 21.707974,13.9698764 21.707974,13.9698764 C21.707974,13.9698764 20.5515342,12.7500776 20.2495006,11.0460625 C19.947467,9.34204734 20.614214,7.79909207 20.614214,7.79909207 C20.614214,7.79909207 21.7706537,9.01889089 22.0726869,10.722906 Z" id="Path" fill="#000000" opacity="0.2"></path>
                    <path d="M26.8062646,14.7678684 C25.180942,15.3621879 23.5477198,14.9807915 23.5477198,14.9807915 C23.5477198,14.9807915 24.5496663,13.6358073 26.1749889,13.0414854 C27.8003115,12.4471636 29.4335333,12.8285624 29.4335333,12.8285624 C29.4335333,12.8285624 28.4315872,14.1735465 26.8062646,14.7678684 Z" id="Path" fill="#000000" opacity="0.2"></path>
                    <path d="M27.0818774,25.6252308 C25.9426585,26.0418026 24.796285,25.7700544 24.796285,25.7700544 C24.796285,25.7700544 25.4969529,24.8229108 26.6361723,24.4063389 C27.7753917,23.9897671 28.9217647,24.2615153 28.9217647,24.2615153 C28.9217647,24.2615153 28.2210968,25.2086589 27.0818774,25.6252308 Z" id="Path" fill="#000000" opacity="0.2"></path>
                    <path d="M8.60844686,8.5291716 C10.9220672,4.61986982 15.4993818,4.43767858 15.4993818,4.43767858 C15.4993818,4.43767858 19.9597122,3.86729562 22.8209865,9.82121136 C25.4879214,15.3707498 29.1686338,20.728943 23.4135512,22.0280497 L22.3740161,18.7925515 L21.7302376,22.2689288 C20.9108245,22.3278634 20.0888002,22.341912 19.2678518,22.3110116 C13.104622,22.112027 7.23507692,22.3692308 7.42406864,20.1576047 C7.67529988,17.2175621 6.38227976,12.290702 8.60844686,8.5291716 Z" id="Path" fill="#2F2E41"></path>
                    <circle id="Oval" fill="#D0CDE1" cx="15.9500852" cy="13.3566622" r="5.85198343"></circle>
                    <path d="M18.767707,16.6077633 C18.767707,16.6077633 16.383565,23.5434476 19.2011872,25.4941065 C22.0188095,27.4447654 14.6496445,28.7452114 12.6989822,27.4447707 C10.74832,26.1443299 9.23114036,23.9769288 9.23114036,23.9769288 C9.23114036,23.9769288 14.2161643,18.9919053 13.1324634,16.174284 L18.767707,16.6077633 Z" id="Path" fill="#D0CDE1"></path>
                    <path d="M23.1024852,27.0111243 L22.6901775,30.5382249 C21.8100081,30.9441754 20.8944564,31.2685324 19.9550296,31.5072189 C19.8939645,31.5228402 19.8324218,31.5379882 19.7708809,31.5526627 C19.7249638,31.5640237 19.6785756,31.5749112 19.632186,31.5853254 C19.6264652,31.5871909 19.6206098,31.5886152 19.6146712,31.5895858 C19.5195233,31.6118343 19.4243801,31.6331361 19.328284,31.6525444 C19.2743129,31.6639053 19.220355,31.6752663 19.1663882,31.6861538 C19.1337226,31.6932544 19.1005893,31.6994083 19.067929,31.7055621 C19.0267399,31.7136095 18.9860355,31.7211834 18.9448473,31.7292308 C18.9221254,31.7339645 18.8994036,31.7377515 18.8762083,31.7415385 C18.8241325,31.7510059 18.7720686,31.7604734 18.7204686,31.7694675 C18.6324213,31.7846154 18.5434272,31.7992899 18.4549065,31.8125444 C18.3905278,31.8224852 18.3266225,31.8319527 18.2622438,31.8409467 C18.1864994,31.8518343 18.1107669,31.8617751 18.0345486,31.8712426 C18.0137231,31.8745562 17.9928918,31.8769231 17.9720601,31.8792899 C17.9450864,31.882601 17.9181041,31.8859146 17.8911134,31.8892308 C17.8087465,31.8991716 17.7254329,31.9081657 17.6425927,31.9166864 C17.5886335,31.9223669 17.5346703,31.927574 17.480703,31.9323077 C17.4111172,31.9389325 17.3415342,31.9446154 17.2714722,31.9502959 C17.1862684,31.9569231 17.1015314,31.9630769 17.0158509,31.968284 C16.9609439,31.9715976 16.9060284,31.9749112 16.8506438,31.9777515 C16.7095787,31.9853254 16.5685136,31.9905325 16.4265018,31.9943195 C16.3559692,31.996213 16.2849633,31.9976331 16.2139574,31.9985799 L16.2125373,31.9985799 C16.1420047,31.9995266 16.0709988,32 15.9999929,32 C10.1975232,31.9981966 4.84994342,28.8578117 2.02177515,23.7912426 C2.735281,23.3022671 3.47813835,22.8575644 4.24615385,22.459645 C4.49088994,22.3360947 4.82272189,22.260355 5.20189633,22.2215385 C6.05822769,22.1325444 7.16780923,22.2319527 8.13018036,22.4142012 C9.00781349,22.5789349 9.7642632,22.8132544 10.0979943,23.0343195 C10.9652104,23.6085207 14.4331422,25.4939645 14.4331422,25.4939645 C14.4331422,25.4939645 17.4660393,25.927574 18.6911304,25.0243787 C18.6916038,25.0243787 18.6916038,25.0239053 18.6920772,25.0239053 C18.9808346,24.8099408 19.3803569,24.8085207 19.8210712,24.9311243 C19.9143257,24.9571598 20.0093158,24.9882446 20.1060417,25.0243787 C20.3750222,25.1285284 20.6357959,25.252744 20.88616,25.3959763 C20.8918462,25.3992899 20.8970476,25.4021302 20.9027328,25.4054438 C20.9912473,25.4551479 21.0793008,25.5072189 21.1663986,25.5607101 C22.1978665,26.1893491 23.1024852,27.0111243 23.1024852,27.0111243 Z" id="Path" fill="#2F2E41"></path>
                    <path d="M5.59763314,28.1571598 C5.45751479,25.5545562 5.29845822,23.4224852 5.20189349,22.2215385 C6.05822485,22.1325444 7.16780639,22.2319527 8.13017751,22.4142012 C8.91361183,23.9839053 10.6792899,27.6071006 12.3043754,31.5711243 C9.82851457,30.984305 7.52894603,29.8137448 5.59763314,28.1571598 L5.59763314,28.1571598 Z" id="Path" fill="#2F2E41"></path>
                    <path d="M20.8265089,25.3855621 L20.9265089,25.4200464 C20.9166777,25.4912045 20.8929023,25.5349941 20.8265089,25.3855621 Z" id="Path" fill="#2F2E41"></path>
                    <path d="M20.9382783,25.4054438 C20.9392783,25.412071 20.9412693,25.4191716 20.9422703,25.4257988 L20.8992643,25.4153846 C20.9002643,25.4092308 20.9012643,25.4026036 20.9032643,25.3959763 C20.9132783,25.3131361 20.9012663,25.2151479 20.9382783,25.4054438 Z" id="Path" fill="#2F2E41"></path>
                    <path d="M24.5405879,29.5323077 C24.122134,29.7973964 23.6907361,30.0427613 23.2463943,30.2684024 C23.1460336,30.32 23.0452109,30.3697041 22.9434286,30.4184615 C22.8596417,30.4591716 22.7749112,30.4989349 22.6901813,30.5382249 C21.8100119,30.9441754 20.8944602,31.2685324 19.9550334,31.5072189 C20.6371593,29.3046154 21.0693529,27.1299408 20.9046163,25.4257988 L21.1663915,25.5607101 L22.4279299,26.2106509 C22.7910283,26.3973094 23.1223682,26.6401432 23.4097041,26.9301775 C23.496162,27.0165146 23.578161,27.1072044 23.6553818,27.2018935 C24.1888263,27.8498404 24.4986525,28.6527958 24.5386982,29.4911243 C24.5391716,29.5048521 24.5401141,29.5185799 24.5405879,29.5323077 Z" id="Path" fill="#2F2E41"></path>
                    <path d="M10.281547,8.15232473 L14.8037112,5.78356734 L17.6409245,6.22382154 C19.6975604,6.54295255 21.3505297,8.08606496 21.8101236,10.1159342 L22.3406641,12.4591536 L19.1243683,12.3354466 L18.2258566,10.2389188 L18.2258566,12.300888 L16.7417856,12.2438036 L15.8804175,8.90601751 L15.342072,12.4591536 L10.0661983,12.3514793 L10.281547,8.15232473 Z" id="Path" fill="#2F2E41"></path>
                </g>
            </g>
        </g>
    </g>
</svg>