<?xml version="1.0" encoding="UTF-8"?>
<svg width="100px" height="100px" viewBox="0 0 100 100" version="1.1" xmlns="http://www.w3.org/2000/svg" xmlns:xlink="http://www.w3.org/1999/xlink">
    <!-- Generator: Sketch 60 (88103) - https://sketch.com -->
    <title>undraw_female_avatar_l3ey (1)</title>
    <desc>Created with Sketch.</desc>
    <g id="Page-1" stroke="none" stroke-width="1" fill="none" fill-rule="evenodd">
        <g id="profile-loggedIn-leaderboard" transform="translate(-138.000000, -162.000000)" fill-rule="nonzero">
            <g id="1st" transform="translate(138.000000, 162.000000)">
                <g id="undraw_female_avatar_l3ey-(1)">
                    <path d="M99.9999935,50 C99.9999935,67.8002959 90.6982249,83.4289941 76.6893373,92.2884615 C75.3816686,93.1168639 74.0335503,93.8836292 72.6449822,94.5887574 C72.331355,94.75 72.016284,94.9053254 71.6982145,95.0576923 C71.4363802,95.1849112 71.1715976,95.3091716 70.9068166,95.4319527 C68.1562873,96.7005482 65.295188,97.7141636 62.3594793,98.4600592 C62.1686509,98.5088757 61.9763299,98.556213 61.7840148,98.602071 C61.6405237,98.637574 61.4955607,98.6715976 61.3505932,98.704142 C61.3327155,98.7099717 61.3144174,98.7144226 61.2958595,98.7174556 C60.9985222,98.7869822 60.7011997,98.8535503 60.4008994,98.9142012 C60.2322396,98.9497041 60.0636213,98.9852071 59.8949749,99.0192308 C59.792895,99.0414201 59.6893536,99.0606509 59.5872899,99.0798817 C59.458574,99.1050296 59.3313728,99.1286982 59.2026598,99.1538462 C59.1316538,99.1686391 59.0606479,99.1804734 58.9881627,99.1923077 C58.825426,99.2218935 58.6627263,99.2514793 58.5014763,99.2795858 C58.2263284,99.3269231 57.9482219,99.3727811 57.6715947,99.4142012 C57.4704112,99.4452663 57.2707071,99.4748521 57.0695237,99.5029586 C56.8328225,99.5369822 56.5961583,99.5680473 56.3579763,99.5976331 C56.2928964,99.6079882 56.2277988,99.6153846 56.1626997,99.6227811 C56.0784068,99.6331282 55.9940873,99.6434832 55.9097411,99.6538462 C55.6523447,99.6849112 55.3919896,99.7130178 55.1331139,99.739645 C54.9644916,99.7573964 54.7958565,99.7736686 54.6272086,99.7884615 C54.409753,99.8091642 54.1923062,99.8269231 53.9733624,99.8446746 C53.7071006,99.8653846 53.4422973,99.8846154 53.1745459,99.9008876 C53.0029615,99.9112426 52.8313506,99.9215976 52.6582737,99.9304734 C52.2174453,99.954142 51.7766169,99.9704142 51.3328299,99.9822485 C51.1124157,99.9881657 50.8905222,99.9926036 50.6686287,99.9955621 L50.6641908,99.9955621 C50.4437766,99.9985207 50.2218831,100 49.9999935,100 C36.7370911,100.006772 24.0154612,94.7411049 14.6371755,85.3628172 C5.25888973,75.9845295 -0.00677515158,63.2628985 -6.52992374e-06,50 C-6.52992374e-06,22.3860947 22.3861065,2.27373675e-13 49.9999935,2.27373675e-13 C77.6138935,2.27373675e-13 99.9999935,22.3860947 99.9999935,50 Z" id="Path" fill="#FF6347"></path>
                    <path d="M81.6730769,30.5044379 C79.1050296,32.3846154 76.8609601,34.908284 74.8994201,37.8816568 C69.3165799,46.341716 66.0207219,58.4482249 64.0739675,69.760355 C63.576926,72.6508876 63.1671627,75.489645 62.8313639,78.2011834 C61.6745488,87.5281065 61.3742633,95.3683432 61.2958609,98.7174556 C60.9985237,98.7869822 60.7012012,98.8535503 60.4009009,98.9142012 C60.4526538,96.3505917 60.6375651,90.8017751 61.2899541,83.8860947 C61.3742648,82.9925976 61.466961,82.0774103 61.5680429,81.1405325 C61.6804689,80.0872781 61.8047293,79.010355 61.940824,77.9097633 C62.2218891,75.6390533 62.55325,73.285503 62.9452618,70.8920118 C63.0073802,70.5147929 63.0700035,70.1400394 63.1331317,69.7677515 C65.5990962,55.3017751 69.3831317,44.316568 74.4245518,36.943787 C76.4600547,33.964497 78.7006889,31.5784024 81.1464541,29.785503 L81.6730769,30.5044379 Z" id="Path" fill="#000000" opacity="0.2"></path>
                    <path d="M81.1301686,69.9038462 C77.2825355,72.7233728 75.1272175,78.9452663 73.923068,85.0059172 C73.3097739,88.1724169 72.8830089,91.3722077 72.6449778,94.5887574 C72.3313506,94.75 72.0162796,94.9053254 71.6982101,95.0576923 C71.9356167,91.3951712 72.4224506,87.7530969 73.1553254,84.1568047 C74.4216109,78.1538462 76.658284,72.0769231 80.6035503,69.1863905 L81.1301686,69.9038462 Z" id="Path" fill="#000000" opacity="0.2"></path>
                    <circle id="Oval" fill="#000000" opacity="0.2" cx="86.6476716" cy="26.0327914" r="4.45097189"></circle>
                    <circle id="Oval" fill="#000000" opacity="0.2" cx="85.2142899" cy="64.3477559" r="4.45097189"></circle>
                    <path d="M68.9771464,33.5090814 C69.9210015,38.8341287 67.8374186,43.6558639 67.8374186,43.6558639 C67.8374186,43.6558639 64.2235444,39.8439926 63.2796893,34.5189453 C62.3358343,29.1938979 64.4194186,24.3721627 64.4194186,24.3721627 C64.4194186,24.3721627 68.0332929,28.184034 68.9771464,33.5090814 Z" id="Path" fill="#000000" opacity="0.2"></path>
                    <path d="M83.7695769,46.1495888 C78.6904438,48.0068373 73.5866243,46.8149734 73.5866243,46.8149734 C73.5866243,46.8149734 76.7177071,42.6118979 81.7968402,40.754642 C86.8759734,38.8973861 91.9797914,40.0892574 91.9797914,40.0892574 C91.9797914,40.0892574 88.8487101,44.2923328 83.7695769,46.1495888 Z" id="Path" fill="#000000" opacity="0.2"></path>
                    <path d="M84.6308669,80.0788462 C81.0708077,81.3806331 77.4883905,80.5314201 77.4883905,80.5314201 C77.4883905,80.5314201 79.6779778,77.5715962 83.2380385,76.2698092 C86.7980991,74.9680222 90.3805148,75.8172352 90.3805148,75.8172352 C90.3805148,75.8172352 88.1909275,78.7770592 84.6308669,80.0788462 Z" id="Path" fill="#000000" opacity="0.2"></path>
                    <path d="M26.9013964,26.6536612 C34.1314601,14.4370932 48.435568,13.8677456 48.435568,13.8677456 C48.435568,13.8677456 62.3741006,12.0852988 71.3155828,30.6912855 C79.6497544,48.0335932 91.1519808,64.7779467 73.1673476,68.8376553 L69.9188003,58.7267234 L67.9069926,69.5904024 C65.3463267,69.7745732 62.7775007,69.8184751 60.212037,69.7219112 C40.9519438,69.1000843 22.6096154,69.9038462 23.2002145,62.9925148 C23.9853121,53.8048817 19.9446243,38.4084438 26.9013964,26.6536612 Z" id="Path" fill="#2F2E41"></path>
                    <circle id="Oval" fill="#D0CDE1" cx="49.8440163" cy="41.7395695" r="18.2874482"></circle>
                    <path d="M58.6490843,51.8992604 C58.6490843,51.8992604 51.1986405,73.5732737 60.0037101,79.6690828 C68.8087796,85.764892 45.7801391,89.8287855 39.6843195,85.7649083 C33.5885,81.7010311 28.8473136,74.9279024 28.8473136,74.9279024 C28.8473136,74.9279024 44.4255133,59.3497041 41.0389482,50.5446376 L58.6490843,51.8992604 Z" id="Path" fill="#D0CDE1"></path>
                    <path d="M72.1952663,84.4097633 L70.9068047,95.4319527 C68.1562755,96.7005482 65.2951762,97.7141636 62.3594675,98.4600592 C62.1686391,98.5088757 61.976318,98.556213 61.784003,98.602071 C61.6405118,98.637574 61.4955488,98.6715976 61.3505814,98.704142 C61.3327037,98.7099717 61.3144055,98.7144226 61.2958476,98.7174556 C60.9985104,98.7869822 60.7011879,98.8535503 60.4008876,98.9142012 C60.2322278,98.9497041 60.0636095,98.9852071 59.894963,99.0192308 C59.7928831,99.0414201 59.6893417,99.0606509 59.5872781,99.0798817 C59.4585621,99.1050296 59.3313609,99.1286982 59.2026479,99.1538462 C59.131642,99.1686391 59.0606361,99.1804734 58.9881509,99.1923077 C58.8254142,99.2218935 58.6627145,99.2514793 58.5014645,99.2795858 C58.2263166,99.3269231 57.9482101,99.3727811 57.6715828,99.4142012 C57.4703994,99.4452663 57.2706953,99.4748521 57.0695118,99.5029586 C56.8328107,99.5369822 56.5961464,99.5680473 56.3579645,99.5976331 C56.2928846,99.6079882 56.227787,99.6153846 56.1626879,99.6227811 C56.078395,99.6331282 55.9940754,99.6434832 55.9097293,99.6538462 C55.6523328,99.6849112 55.3919778,99.7130178 55.1331021,99.739645 C54.9644798,99.7573964 54.7958447,99.7736686 54.6271967,99.7884615 C54.4097411,99.8091642 54.1922944,99.8269231 53.9733506,99.8446746 C53.7070888,99.8653846 53.4422855,99.8846154 53.174534,99.9008876 C53.0029497,99.9112426 52.8313388,99.9215976 52.6582618,99.9304734 C52.2174334,99.954142 51.776605,99.9704142 51.332818,99.9822485 C51.1124038,99.9881657 50.8905104,99.9926036 50.6686169,99.9955621 L50.664179,99.9955621 C50.4437648,99.9985207 50.2218713,100 49.9999778,100 C31.86726,99.9943645 15.1560732,90.1806614 6.31804734,74.3476331 C8.54775311,72.8195845 10.8691823,71.4298888 13.2692308,70.1863905 C14.0340311,69.8002959 15.0710059,69.5636095 16.255926,69.4423077 C18.9319615,69.1642012 22.3994038,69.4748521 25.4068136,70.0443787 C28.1494172,70.5591716 30.5133225,71.2914201 31.5562322,71.9822485 C34.2662825,73.7766272 45.1035695,79.6686391 45.1035695,79.6686391 C45.1035695,79.6686391 54.5813728,81.0236686 58.4097825,78.2011834 C58.4112618,78.2011834 58.4112618,78.1997041 58.4127411,78.1997041 C59.315108,77.5310651 60.5636154,77.5266272 61.9408476,77.9097633 C62.2322678,77.9911243 62.5291119,78.0882643 62.8313802,78.2011834 C63.6719443,78.5266513 64.4868621,78.9148251 65.26925,79.362426 C65.2870192,79.3727811 65.3032737,79.3816568 65.3210399,79.3920118 C65.5976479,79.5473373 65.8728151,79.7100592 66.1449956,79.8772189 C69.3683328,81.841716 72.1952663,84.4097633 72.1952663,84.4097633 Z" id="Path" fill="#2F2E41"></path>
                    <path d="M17.4926036,87.9911243 C17.0547337,79.8579882 16.557682,73.1952663 16.2559172,69.4423077 C18.9319527,69.1642012 22.399395,69.4748521 25.4068047,70.0443787 C27.855037,74.9497041 33.3727811,86.2721893 38.4511731,98.6597633 C30.714108,96.8259532 23.5279563,93.1679526 17.4926036,87.9911243 L17.4926036,87.9911243 Z" id="Path" fill="#2F2E41"></path>
                    <path d="M65.0828402,79.3298817 L65.2633136,79.4230769 C65.245571,79.6153846 65.2026627,79.7337278 65.0828402,79.3298817 Z" id="Path" fill="#2F2E41"></path>
                    <path d="M65.3210163,79.3920118 C65.3224956,79.4127219 65.3254408,79.4349112 65.3269216,79.4556213 L65.2633033,79.4230769 C65.2647825,79.4038462 65.2662618,79.3831361 65.2692204,79.362426 C65.284034,79.1035503 65.2662648,78.7973373 65.3210163,79.3920118 Z" id="Path" fill="#2F2E41"></path>
                    <path d="M76.6893373,92.2884615 C75.3816686,93.1168639 74.0335503,93.8836292 72.6449822,94.5887574 C72.331355,94.75 72.016284,94.9053254 71.6982145,95.0576923 C71.4363802,95.1849112 71.1715976,95.3091716 70.9068166,95.4319527 C68.1562873,96.7005482 65.295188,97.7141636 62.3594793,98.4600592 C64.4911228,91.5769231 65.8417278,84.7810651 65.326926,79.4556213 L66.1449734,79.8772189 L70.0872811,81.908284 C71.2219635,82.491592 72.2574007,83.2504474 73.1553254,84.1568047 C73.4255063,84.4266083 73.6817533,84.7100137 73.923068,85.0059172 C75.5900823,87.0307513 76.5582891,89.5399868 76.683432,92.1597633 C76.6849112,92.2026627 76.6878565,92.2455621 76.6893373,92.2884615 Z" id="Path" fill="#2F2E41"></path>
                    <path d="M32.1298343,25.4760148 L46.2615976,18.0736479 L55.1278891,19.4494423 C61.5548761,20.4467267 66.7204052,25.268953 68.1566361,31.6122944 L69.8145754,38.934855 L59.7636509,38.5482707 L56.9558018,31.9966213 L56.9558018,38.4402751 L52.3180799,38.2618861 L49.6263047,27.8313047 L47.9439749,38.934855 L31.4568698,38.5983728 L32.1298343,25.4760148 Z" id="Path" fill="#2F2E41"></path>
                </g>
            </g>
        </g>
    </g>
</svg>