<?xml version="1.0" encoding="UTF-8"?>
<svg width="32px" height="32px" viewBox="0 0 32 32" version="1.1" xmlns="http://www.w3.org/2000/svg" xmlns:xlink="http://www.w3.org/1999/xlink">
    <!-- Generator: Sketch 60 (88103) - https://sketch.com -->
    <title>undraw_male_avatar_323b (1)</title>
    <desc>Created with Sketch.</desc>
    <g id="Page-1" stroke="none" stroke-width="1" fill="none" fill-rule="evenodd">
        <g id="profile-loggedIn-leaderboard" transform="translate(-60.000000, -476.000000)" fill-rule="nonzero">
            <g id="6th" transform="translate(21.000000, 476.000000)">
                <g id="undraw_male_avatar_323b-(1)" transform="translate(39.000000, 0.000000)">
                    <path d="M32.0000139,15.9763663 C32.0028582,18.1390786 31.5644363,20.2797016 30.7114793,22.2676514 L30.6584615,22.3896012 C27.6892483,29.1344509 20.4917818,32.9833913 13.2236686,31.7130871 C13.127574,31.6960709 13.0316371,31.6784244 12.935858,31.6601477 C11.9461877,31.4685784 10.9770675,31.18321 10.0416568,30.8079173 C9.88970414,30.7469424 9.73885602,30.6837617 9.58911243,30.6183752 C9.48686391,30.5739439 9.38461538,30.5280945 9.28331361,30.4808272 C3.62530943,27.8623809 0.00332155825,22.2033044 0,15.9763663 C0,7.15296898 7.1635503,5.68434189e-14 16,5.68434189e-14 C24.8364497,5.68434189e-14 32.0000139,7.15296898 32.0000139,15.9763663 Z" id="Path" fill="#FFC107"></path>
                    <path d="M13.2236686,31.7130871 C13.127574,31.6960709 13.0316371,31.6784244 12.935858,31.6601477 C12.8733728,29.8493353 12.6589349,26.1327031 11.9275716,22.2402363 C11.527574,20.1098966 10.9723077,17.9261448 10.2021302,15.974003 C9.93827192,15.2985384 9.63689677,14.6382914 9.29940828,13.9963368 C8.52118343,12.5286854 7.57727811,11.2931167 6.43266272,10.4560118 L6.60118343,10.2262925 C7.55313609,10.9230133 8.4086785,11.9011324 9.16781065,13.1606499 C9.39550296,13.5378434 9.61420197,13.9402462 9.82390769,14.3678582 C10.0487598,14.8254062 10.2631976,15.3111571 10.4672213,15.8251108 C10.5973988,16.1522009 10.7231582,16.4906352 10.8444994,16.8404136 C11.3727834,18.3591137 11.8218564,20.091935 12.1917183,22.0388774 C12.2736137,22.4690103 12.3515624,22.9096997 12.4255645,23.3609453 C12.9988166,26.8573117 13.1715976,30.0899261 13.2236686,31.7130871 Z" id="Path" fill="#000000" opacity="0.2"></path>
                    <path d="M9.58911243,30.6183752 C9.48686391,30.5739439 9.38461538,30.5280945 9.28331361,30.4808272 C9.1843787,29.4078582 9.00260355,28.0768095 8.67029586,26.813353 C8.52475291,26.2459006 8.33790496,25.6898182 8.1112426,25.1495421 C7.73207101,24.2632792 7.24118343,23.5098375 6.60639053,23.0451994 L6.77491124,22.8159527 C7.43952663,23.3018612 7.95218935,24.0699557 8.34840237,24.9685081 C8.7947929,25.9809749 9.09254438,27.1593501 9.29088757,28.2852585 C9.43810651,29.121418 9.53088757,29.9292171 9.58911243,30.6183752 Z" id="Path" fill="#000000" opacity="0.2"></path>
                    <ellipse id="Oval" fill="#000000" opacity="0.2" cx="4.84079243" cy="9.02719858" rx="1.42431101" ry="1.42220715"></ellipse>
                    <ellipse id="Oval" fill="#000000" opacity="0.2" cx="5.29947456" cy="21.2698768" rx="1.42431101" ry="1.42220715"></ellipse>
                    <path d="M10.4953605,11.4160775 C10.1933269,13.1175757 10.8600734,14.6582518 10.8600734,14.6582518 C10.8600734,14.6582518 12.0165131,13.4402548 12.3185467,11.7387566 C12.6205804,10.0372585 11.9538334,8.49658233 11.9538334,8.49658233 C11.9538334,8.49658233 10.7973936,9.71457938 10.4953605,11.4160775 Z" id="Path" fill="#000000" opacity="0.2"></path>
                    <path d="M5.76178272,15.4550651 C7.38710533,16.0485067 9.02032757,15.6676736 9.02032757,15.6676736 C9.02032757,15.6676736 8.01838107,14.3246762 6.39305846,13.7312321 C4.76773586,13.1377881 3.13451408,13.5186236 3.13451408,13.5186236 C3.13451408,13.5186236 4.13646012,14.861621 5.76178272,15.4550651 Z" id="Path" fill="#000000" opacity="0.2"></path>
                    <path d="M5.48616994,26.29639 C6.62538888,26.7123465 7.77176237,26.4409997 7.77176237,26.4409997 C7.77176237,26.4409997 7.07109444,25.4952555 5.93187503,25.0792981 C4.79265562,24.6633406 3.6462826,24.9346883 3.6462826,24.9346883 C3.6462826,24.9346883 4.34695053,25.8804334 5.48616994,26.29639 Z" id="Path" fill="#000000" opacity="0.2"></path>
                    <ellipse id="Oval" fill="#D0CDE1" cx="15.9671517" cy="13.2858517" rx="6.23763976" ry="6.22842612"></ellipse>
                    <path d="M13.5305737,18.0544903 C13.5305737,18.0544903 14.3102788,21.7526183 14.3102788,22.1418947 C14.3102788,22.5311712 18.0138774,24.2829169 18.0138774,24.2829169 L21.3276213,23.6990015 L22.4971834,20.1955115 C22.4971834,20.1955115 20.5479209,17.2759369 20.5479209,16.1081071 L13.5305737,18.0544903 Z" id="Path" fill="#D0CDE1"></path>
                    <path d="M30.7114793,22.2676514 L30.6584615,22.3896012 C27.6892483,29.1344509 20.4917818,32.9833913 13.2236686,31.7130871 C13.127574,31.6960709 13.0316371,31.6784244 12.935858,31.6601477 C11.9461877,31.4685784 10.9770675,31.18321 10.0416568,30.8079173 C9.88970414,30.7469424 9.73885602,30.6837617 9.58911243,30.6183752 C9.48686391,30.5739439 9.38461538,30.5280945 9.28331361,30.4808272 C8.36510416,30.0560635 7.48937649,29.5451724 6.66792899,28.9550369 L5.92852071,26.813353 L6.34414201,26.4966641 L7.19905325,25.8448473 L8.1112426,25.1495445 L8.34840237,24.9685105 L11.927574,22.2402387 L12.191716,22.0388798 L14.052071,20.6208591 L14.0525444,20.6203864 C14.0525444,20.6203864 16.0643787,23.8936508 18.9884024,22.920416 C21.912426,21.9471811 21.8485207,19.1565164 21.8485207,19.1565164 L30.7114793,22.2676514 Z" id="Path" fill="#2F2E41"></path>
                    <path d="M10.5578878,8.26781684 C10.5578878,8.26781684 12.5383153,3.98322907 16.3341344,4.97197991 C20.1299536,5.96073075 22.2754163,7.44385749 22.440454,8.92698422 C22.6054916,10.410111 22.3579361,12.6348001 22.3579361,12.6348001 C22.3579361,12.6348001 21.9453444,9.58615019 19.3047763,10.2453185 C16.6642083,10.9044869 12.5383162,10.4101105 12.5383162,10.4101105 L11.8781728,16.342617 C11.8781728,16.342617 11.1355124,15.2714701 10.3103347,15.9306375 C9.48515692,16.5898049 7.91731834,9.58615066 10.5578878,8.26781684 Z" id="Path" fill="#2F2E41"></path>
                    <path d="M10.0416568,30.8079173 C9.88970414,30.7469424 9.73885602,30.6837617 9.58911243,30.6183752 C9.48686391,30.5739439 9.38461538,30.5280945 9.28331361,30.4808272 C7.76469249,29.77767 6.36566657,28.8414728 5.13704142,27.7062334 C5.57207101,27.1144461 5.92852071,26.813353 5.92852071,26.813353 L8.85254438,26.813353 L9.29088757,28.2852585 L10.0416568,30.8079173 Z" id="Path" fill="#2F2E41"></path>
                    <path d="M28.1500592,21.9471787 L30.6584615,22.3896012 C29.9871826,23.9165796 29.0805799,25.3291799 27.9715976,26.5760709 L28.1500592,21.9471787 Z" id="Path" fill="#2F2E41"></path>
                </g>
            </g>
        </g>
    </g>
</svg>