<?xml version="1.0" encoding="UTF-8"?>
<svg width="18px" height="18px" viewBox="0 0 18 18" version="1.1" xmlns="http://www.w3.org/2000/svg" xmlns:xlink="http://www.w3.org/1999/xlink">
    <!-- Generator: Sketch 60 (88103) - https://sketch.com -->
    <title>search</title>
    <desc>Created with Sketch.</desc>
    <defs>
        <path d="M8.75,1.66666667 C12.662017,1.66666667 15.8333333,4.83798302 15.8333333,8.75 C15.8333333,10.405593 15.2653374,11.9285234 14.3135816,13.134555 L18.0892557,16.9107443 C18.4146926,17.2361813 18.4146926,17.7638187 18.0892557,18.0892557 C17.7638187,18.4146926 17.2361813,18.4146926 16.9107443,18.0892557 L16.9107443,18.0892557 L13.134555,14.3135816 C11.9285234,15.2653374 10.405593,15.8333333 8.75,15.8333333 C4.83798302,15.8333333 1.66666667,12.662017 1.66666667,8.75 C1.66666667,4.83798302 4.83798302,1.66666667 8.75,1.66666667 Z M8.75,3.33333333 C5.75845761,3.33333333 3.33333333,5.75845761 3.33333333,8.75 C3.33333333,11.7415424 5.75845761,14.1666667 8.75,14.1666667 C10.2286781,14.1666667 11.5689696,13.5741631 12.5464108,12.6136197 L12.577411,12.577411 C12.5887635,12.5660586 12.600362,12.5551021 12.6121894,12.5445417 C13.5741631,11.5689696 14.1666667,10.2286781 14.1666667,8.75 C14.1666667,5.75845761 11.7415424,3.33333333 8.75,3.33333333 Z" id="path-1"></path>
    </defs>
    <g id="Page-1" stroke="none" stroke-width="1" fill="none" fill-rule="evenodd">
        <g id="home-loggedIn" transform="translate(-33.000000, -151.000000)">
            <g id="search" transform="translate(20.000000, 140.000000)">
                <g transform="translate(12.000000, 10.000000)">
                    <mask id="mask-2" fill="white">
                        <use xlink:href="#path-1"></use>
                    </mask>
                    <use id="Combined-Shape" fill="#000000" fill-rule="nonzero" xlink:href="#path-1"></use>
                    <g id="COLOR/-black" mask="url(#mask-2)" fill="#000000" fill-rule="evenodd">
                        <rect id="Rectangle" x="0" y="0" width="20" height="20"></rect>
                    </g>
                </g>
            </g>
        </g>
    </g>
</svg>