<?xml version="1.0" encoding="UTF-8"?>
<svg width="80px" height="80px" viewBox="0 0 80 80" version="1.1" xmlns="http://www.w3.org/2000/svg" xmlns:xlink="http://www.w3.org/1999/xlink">
    <!-- Generator: Sketch 60 (88103) - https://sketch.com -->
    <title>undraw_female_avatar_l3ey</title>
    <desc>Created with Sketch.</desc>
    <g id="Page-1" stroke="none" stroke-width="1" fill="none" fill-rule="evenodd">
        <g id="profile-loggedIn" transform="translate(-148.000000, -120.000000)" fill-rule="nonzero">
            <g id="undraw_female_avatar_l3ey" transform="translate(148.000000, 120.000000)">
                <path d="M79.9999948,40 C79.9999948,54.2402367 72.5585799,66.7431953 61.3514698,73.8307692 C60.3053349,74.4934911 59.2268402,75.1069034 58.1159858,75.6710059 C57.865084,75.8 57.6130272,75.9242604 57.3585716,76.0461538 C57.1491041,76.147929 56.9372781,76.2473373 56.7254533,76.3455621 C54.5250298,77.3604385 52.2361504,78.1713309 49.8875834,78.7680473 C49.7349207,78.8071006 49.5810639,78.8449704 49.4272118,78.8816568 C49.3124189,78.9100592 49.1964485,78.9372781 49.0804746,78.9633136 C49.0661724,78.9679773 49.0515339,78.9715381 49.0366876,78.9739645 C48.7988178,79.0295858 48.5609598,79.0828402 48.3207195,79.1313609 C48.1857917,79.1597633 48.050897,79.1881657 47.9159799,79.2153846 C47.834316,79.2331361 47.7514828,79.2485207 47.669832,79.2639053 C47.5668592,79.2840237 47.4650982,79.3029586 47.3621278,79.3230769 C47.3053231,79.3349112 47.2485183,79.3443787 47.1905302,79.3538462 C47.0603408,79.3775148 46.9301811,79.4011834 46.8011811,79.4236686 C46.5810627,79.4615385 46.3585775,79.4982249 46.1372757,79.5313609 C45.976329,79.556213 45.8165657,79.5798817 45.6556189,79.6023669 C45.466258,79.6295858 45.2769266,79.6544379 45.0863811,79.6781065 C45.0343172,79.6863905 44.9822391,79.6923077 44.9301598,79.6982249 C44.8627254,79.7065026 44.7952698,79.7147866 44.7277929,79.7230769 C44.5218757,79.747929 44.3135917,79.7704142 44.1064911,79.791716 C43.9715933,79.8059172 43.8366852,79.8189349 43.7017669,79.8307692 C43.5278024,79.8473314 43.353845,79.8615385 43.1786899,79.8757396 C42.9656805,79.8923077 42.7538379,79.9076923 42.5396367,79.9207101 C42.4023692,79.9289941 42.2650805,79.9372781 42.1266189,79.9443787 C41.7739562,79.9633136 41.4212935,79.9763314 41.0662639,79.9857988 C40.8899325,79.9905325 40.7124178,79.9940828 40.534903,79.9964497 L40.5313527,79.9964497 C40.3550213,79.9988166 40.1775065,80 39.9999948,80 C29.3896729,80.0054179 19.212369,75.7928839 11.7097404,68.2902538 C4.20711179,60.7876236 -0.00542012127,50.6103188 -5.22393899e-06,40 C-5.22393899e-06,17.9088757 17.9088852,2.27373675e-13 39.9999948,2.27373675e-13 C62.0911148,2.27373675e-13 79.9999948,17.9088757 79.9999948,40 Z" id="Path" fill="#38D39F"></path>
                <path d="M65.3384615,24.4035503 C63.2840237,25.9076923 61.488768,27.9266272 59.9195361,30.3053254 C55.4532639,37.0733728 52.8165775,46.7585799 51.259174,55.808284 C50.8615408,58.1207101 50.5337302,60.391716 50.2650911,62.5609467 C49.3396391,70.0224852 49.0994107,76.2946746 49.0366888,78.9739645 C48.7988189,79.0295858 48.5609609,79.0828402 48.3207207,79.1313609 C48.3621231,77.0804734 48.5100521,72.6414201 49.0319633,67.1088757 C49.0994118,66.3940781 49.1735688,65.6619282 49.2544343,64.912426 C49.3443751,64.0698225 49.4437834,63.208284 49.5526592,62.3278107 C49.7775112,60.5112426 50.0426,58.6284024 50.3562095,56.7136095 C50.4059041,56.4118343 50.4560028,56.1120316 50.5065053,55.8142012 C52.4792769,44.2414201 55.5065053,35.4532544 59.5396414,29.5550296 C61.1680438,27.1715976 62.9605511,25.2627219 64.9171633,23.8284024 L65.3384615,24.4035503 Z" id="Path" fill="#000000" opacity="0.2"></path>
                <path d="M64.9041349,55.9230769 C61.8260284,58.1786982 60.101774,63.156213 59.1384544,68.0047337 C58.6478191,70.5379335 58.3064071,73.0977662 58.1159822,75.6710059 C57.8650805,75.8 57.6130237,75.9242604 57.358568,76.0461538 C57.5484933,73.1161369 57.9379605,70.2024775 58.5242604,67.3254438 C59.5372888,62.5230769 61.3266272,57.6615385 64.4828402,55.3491124 L64.9041349,55.9230769 Z" id="Path" fill="#000000" opacity="0.2"></path>
                <circle id="Oval" fill="#000000" opacity="0.2" cx="69.3181373" cy="20.8262331" r="3.56077751"></circle>
                <circle id="Oval" fill="#000000" opacity="0.2" cx="68.171432" cy="51.4782047" r="3.56077751"></circle>
                <path d="M55.1817172,26.8072651 C55.9368012,31.067303 54.2699349,34.9246911 54.2699349,34.9246911 C54.2699349,34.9246911 51.3788355,31.8751941 50.6237515,27.6151562 C49.8686675,23.3551183 51.5355349,19.4977302 51.5355349,19.4977302 C51.5355349,19.4977302 54.4266343,22.5472272 55.1817172,26.8072651 Z" id="Path" fill="#000000" opacity="0.2"></path>
                <path d="M67.0156615,36.919671 C62.952355,38.4054698 58.8692994,37.4519787 58.8692994,37.4519787 C58.8692994,37.4519787 61.3741657,34.0895183 65.4374722,32.6037136 C69.5007787,31.1179089 73.5838331,32.0714059 73.5838331,32.0714059 C73.5838331,32.0714059 71.078968,35.4338663 67.0156615,36.919671 Z" id="Path" fill="#000000" opacity="0.2"></path>
                <path d="M67.7046935,64.0630769 C64.8566462,65.1045065 61.9907124,64.4251361 61.9907124,64.4251361 C61.9907124,64.4251361 63.7423822,62.0572769 66.5904308,61.0158473 C69.4384793,59.9744178 72.3044118,60.6537882 72.3044118,60.6537882 C72.3044118,60.6537882 70.552742,63.0216473 67.7046935,64.0630769 Z" id="Path" fill="#000000" opacity="0.2"></path>
                <path d="M21.5211172,21.322929 C27.305168,11.5496746 38.7484544,11.0941964 38.7484544,11.0941964 C38.7484544,11.0941964 49.8992805,9.66823905 57.0524663,24.5530284 C63.7198036,38.4268746 72.9215846,51.8223574 58.5338781,55.0701243 L55.9350402,46.9813787 L54.3255941,55.6723219 C52.2770614,55.8196585 50.2220006,55.8547801 48.1696296,55.777529 C32.761555,55.2800675 18.0876923,55.9230769 18.5601716,50.3940118 C19.1882497,43.0439053 15.9556994,30.726755 21.5211172,21.322929 Z" id="Path" fill="#2F2E41"></path>
                <circle id="Oval" fill="#D0CDE1" cx="39.875213" cy="33.3916556" r="14.6299586"></circle>
                <path d="M46.9192675,41.5194083 C46.9192675,41.5194083 40.9589124,58.8586189 48.002968,63.7352663 C55.0470237,68.6119136 36.6241112,71.8630284 31.7474556,68.6119266 C26.8708,65.3608249 23.0778509,59.9423219 23.0778509,59.9423219 C23.0778509,59.9423219 35.5404107,47.4797633 32.8311586,40.4357101 L46.9192675,41.5194083 Z" id="Path" fill="#D0CDE1"></path>
                <path d="M57.756213,67.5278107 L56.7254438,76.3455621 C54.5250204,77.3604385 52.2361409,78.1713309 49.887574,78.7680473 C49.7349112,78.8071006 49.5810544,78.8449704 49.4272024,78.8816568 C49.3124095,78.9100592 49.1964391,78.9372781 49.0804651,78.9633136 C49.066163,78.9679773 49.0515244,78.9715381 49.0366781,78.9739645 C48.7988083,79.0295858 48.5609503,79.0828402 48.3207101,79.1313609 C48.1857822,79.1597633 48.0508876,79.1881657 47.9159704,79.2153846 C47.8343065,79.2331361 47.7514734,79.2485207 47.6698225,79.2639053 C47.5668497,79.2840237 47.4650888,79.3029586 47.3621183,79.3230769 C47.3053136,79.3349112 47.2485089,79.3443787 47.1905207,79.3538462 C47.0603314,79.3775148 46.9301716,79.4011834 46.8011716,79.4236686 C46.5810533,79.4615385 46.358568,79.4982249 46.1372663,79.5313609 C45.9763195,79.556213 45.8165562,79.5798817 45.6556095,79.6023669 C45.4662485,79.6295858 45.2769172,79.6544379 45.0863716,79.6781065 C45.0343077,79.6863905 44.9822296,79.6923077 44.9301503,79.6982249 C44.862716,79.7065026 44.7952604,79.7147866 44.7277834,79.7230769 C44.5218663,79.747929 44.3135822,79.7704142 44.1064817,79.791716 C43.9715838,79.8059172 43.8366757,79.8189349 43.7017574,79.8307692 C43.5277929,79.8473314 43.3538355,79.8615385 43.1786805,79.8757396 C42.965671,79.8923077 42.7538284,79.9076923 42.5396272,79.9207101 C42.4023598,79.9289941 42.265071,79.9372781 42.1266095,79.9443787 C41.7739467,79.9633136 41.421284,79.9763314 41.0662544,79.9857988 C40.8899231,79.9905325 40.7124083,79.9940828 40.5348935,79.9964497 L40.5313432,79.9964497 C40.3550118,79.9988166 40.177497,80 39.9999822,80 C25.493808,79.9954916 12.1248586,72.1445291 5.05443787,59.4781065 C6.83820249,58.2556676 8.69534587,57.143911 10.6153846,56.1491124 C11.2272249,55.8402367 12.0568047,55.6508876 13.0047408,55.5538462 C15.1455692,55.3313609 17.9195231,55.5798817 20.3254509,56.035503 C22.5195337,56.4473373 24.410658,57.0331361 25.2449858,57.5857988 C27.413026,59.0213018 36.0828556,63.7349112 36.0828556,63.7349112 C36.0828556,63.7349112 43.6650982,64.8189349 46.727826,62.5609467 C46.7290095,62.5609467 46.7290095,62.5597633 46.7301929,62.5597633 C47.4520864,62.0248521 48.4508923,62.0213018 49.5526781,62.3278107 C49.7858142,62.3928994 50.0232895,62.4706114 50.2651041,62.5609467 C50.9375555,62.821321 51.5894897,63.1318601 52.2154,63.4899408 C52.2296154,63.4982249 52.2426189,63.5053254 52.256832,63.5136095 C52.4781183,63.6378698 52.6982521,63.7680473 52.9159964,63.9017751 C55.4946663,65.4733728 57.756213,67.5278107 57.756213,67.5278107 Z" id="Path" fill="#2F2E41"></path>
                <path d="M13.9940828,70.3928994 C13.643787,63.8863905 13.2461456,58.556213 13.0047337,55.5538462 C15.1455621,55.3313609 17.919516,55.5798817 20.3254438,56.035503 C22.2840296,59.9597633 26.6982249,69.0177515 30.7609385,78.9278107 C24.5712864,77.4607625 18.8223651,74.5343621 13.9940828,70.3928994 L13.9940828,70.3928994 Z" id="Path" fill="#2F2E41"></path>
                <path d="M52.0662722,63.4639053 L52.2106509,63.5384615 C52.1964568,63.6923077 52.1621302,63.7869822 52.0662722,63.4639053 Z" id="Path" fill="#2F2E41"></path>
                <path d="M52.266933,63.5136095 C52.2682663,63.5301775 52.270921,63.547929 52.2722557,63.564497 L52.2149143,63.5384615 C52.2162477,63.5230769 52.217581,63.5065089 52.2202477,63.4899408 C52.2335997,63.2828402 52.2175837,63.0378698 52.266933,63.5136095 Z" id="Path" fill="#2F2E41"></path>
                <path d="M61.3514698,73.8307692 C60.3053349,74.4934911 59.2268402,75.1069034 58.1159858,75.6710059 C57.865084,75.8 57.6130272,75.9242604 57.3585716,76.0461538 C57.1491041,76.147929 56.9372781,76.2473373 56.7254533,76.3455621 C54.5250298,77.3604385 52.2361504,78.1713309 49.8875834,78.7680473 C51.5928982,73.2615385 52.6733822,67.8248521 52.2615408,63.564497 L52.9159787,63.9017751 L56.0698249,65.5266272 C56.9775708,65.9932736 57.8059206,66.6003579 58.5242604,67.3254438 C58.7404051,67.5412866 58.9454026,67.768011 59.1384544,68.0047337 C60.4720658,69.6246011 61.2466313,71.6319894 61.3467456,73.7278107 C61.347929,73.7621302 61.3502852,73.7964497 61.3514698,73.8307692 Z" id="Path" fill="#2F2E41"></path>
                <path d="M25.7038675,20.3808118 L37.0092781,14.4589183 L44.1023112,15.5595538 C49.2439009,16.3573814 53.3763242,20.2151624 54.5253089,25.2898355 L55.8516604,31.147884 L47.8109207,30.8386166 L45.5646414,25.597297 L45.5646414,30.7522201 L41.8544639,30.6095089 L39.7010438,22.2650438 L38.3551799,31.147884 L25.1654959,30.8786982 L25.7038675,20.3808118 Z" id="Path" fill="#2F2E41"></path>
            </g>
        </g>
    </g>
</svg>