<?xml version="1.0" encoding="UTF-8"?>
<svg width="60px" height="50px" viewBox="0 0 60 50" version="1.1" xmlns="http://www.w3.org/2000/svg" xmlns:xlink="http://www.w3.org/1999/xlink">
    <!-- Generator: Sketch 60 (88103) - https://sketch.com -->
    <title>sun</title>
    <desc>Created with Sketch.</desc>
    <g id="Page-1" stroke="none" stroke-width="1" fill="none" fill-rule="evenodd">
        <g id="home-park-entrance1" transform="translate(-158.000000, -305.000000)" fill="#000000" fill-rule="nonzero">
            <g id="sun" transform="translate(158.000000, 305.000000)">
                <path d="M26.1667839,9.59755352 L22.8682915,6.21529052 C22.4793467,5.74373089 21.7872362,5.68134557 21.3223116,6.07584098 C20.8573869,6.47033639 20.7958794,7.17232416 21.1848241,7.64388379 C21.2237186,7.69097859 21.2663819,7.73486239 21.3125126,7.77492355 L24.611005,11.1571865 C25.0712563,11.5571865 25.7641206,11.5029052 26.1584925,11.0360856 C26.5073367,10.6230887 26.5109548,10.0146789 26.1667839,9.59755352 Z" id="Path"></path>
                <path d="M54.1334171,6.39036697 C53.7444724,5.91880734 53.0523618,5.85642202 52.5874372,6.25091743 C52.541005,6.29036697 52.4977387,6.33363914 52.4582412,6.38042813 L49.1235678,9.72599388 C48.6586432,10.1204893 48.5971357,10.8224771 48.9860804,11.2940367 C49.3750251,11.7655963 50.0671357,11.8279817 50.5320603,11.4334862 C50.5784925,11.3940367 50.6217588,11.3507645 50.6612563,11.3039755 L53.9959296,7.95840979 C54.4607035,7.56391437 54.5223618,6.86192661 54.1334171,6.39036697 Z" id="Path"></path>
                <path d="M34.2596985,5.69357798 C34.2529146,5.66116208 34.2447739,5.62920489 34.2351256,5.59755352 L33.0290955,0.998165138 C32.9036683,0.400152905 32.3240201,0.0185015291 31.7344221,0.145565749 C31.1448241,0.272629969 30.7685427,0.860703364 30.8938191,1.4587156 C30.900603,1.4911315 30.9087437,1.52308869 30.918392,1.55474006 L32.1244221,6.15412844 C32.2498492,6.75214067 32.8294975,7.13379205 33.4190955,7.00672783 C34.0086935,6.87966361 34.3851256,6.29159021 34.2596985,5.69357798 Z" id="Path"></path>
                <path d="M49.2562312,29.37737 C49.051206,29.169419 48.838191,28.9655963 48.6170352,28.7657492 L48.7979397,28.435474 C49.0224121,28.0169725 49.2236683,27.5860856 49.4009548,27.1449541 C51.9696482,20.6380734 48.8513065,13.2510703 42.4359799,10.6457187 C42.4239196,10.6408257 42.4120101,10.6359327 42.3999497,10.6311927 C36.6001508,8.28639144 29.9835678,10.6348624 26.890402,16.1357798 C19.3301005,13.9941896 11.4895477,18.4743119 9.3779397,26.1426606 C9.02653266,27.4186544 8.85030151,28.7376147 8.85422111,30.0623853 C8.85422111,30.2458716 8.85422111,30.4374618 8.85422111,30.6373089 C3.60542714,31.0148318 -0.347939698,35.6365443 0.0242713568,40.9602446 C0.375979899,45.991896 4.48417085,49.9025994 9.45723618,49.9400795 L9.48738693,49.9400795 L40.8441709,49.9400795 C47.4016583,49.9515291 52.7267337,44.5692661 52.7382085,37.9181957 C52.7436181,34.7148318 51.4905528,31.6412844 49.2562312,29.37737 Z M33.9637688,12.6984709 C36.4092965,11.7120795 39.1343216,11.7120795 41.5798492,12.6984709 C46.881407,14.8438838 49.4689447,20.9383792 47.3627638,26.3192661 C47.210201,26.6897554 47.0371357,27.0512232 46.8441709,27.4018349 L46.8441709,27.4996942 C43.8168844,25.7146789 40.1675879,25.3746177 36.8703015,26.5700306 C36.2617085,24.1073394 35.0217588,21.851682 33.2763317,20.0318043 C34.4957789,17.735474 37.2125126,16.7224771 39.6079899,17.670948 C40.1805528,17.8619266 40.7974372,17.5458716 40.9857286,16.9651376 C41.1584925,16.4324159 40.9111055,15.8527523 40.41,15.6159021 C37.1574874,14.2940367 33.4386935,15.5255352 31.5818593,18.5394495 C30.7588945,17.9119266 29.871407,17.3766055 28.9346231,16.9431193 C30.1123116,15.0120795 31.8774874,13.5221713 33.9637688,12.6984709 Z M43.1348744,47.4448012 C42.3884925,47.6256881 41.6235678,47.716055 40.8562312,47.7139515 L9.49944724,47.7139515 C5.44643216,47.7102446 2.16376884,44.3746177 2.16738395,40.2637615 C2.16919598,38.293578 2.94090452,36.4045872 4.31351759,35.0105505 L4.30145729,35.0166667 C5.6758794,33.6203364 7.5420603,32.8366972 9.48738693,32.8392966 L9.75271357,32.8392966 L9.98788945,32.8392966 C10.5892462,32.8808869 11.1101005,32.4200306 11.1509548,31.8100917 C11.1574372,31.714526 11.1515578,31.6183486 11.1336181,31.5243119 C11.1094975,31.3122324 11.0894472,31.0819572 11.0733166,30.8331804 C11.0733166,30.6007645 11.0733166,30.3438838 11.0733166,30.056422 C11.1627136,23.3215596 16.6180402,17.9353211 23.2582915,18.0259939 C29.0929146,18.1056575 34.0288945,22.42263 34.9647739,28.2643731 C35.0511558,28.869419 35.6047236,29.2889908 36.201407,29.2013761 C36.3165829,29.1844037 36.4284422,29.1489297 36.5326131,29.0961774 C37.2003015,28.7574924 37.9044724,28.4989297 38.6311055,28.3255352 C43.8364824,27.0640673 49.0644724,30.3215596 50.308191,35.6012232 C51.5519095,40.8807339 48.3402513,46.1833333 43.1348744,47.4448012 Z" id="Shape"></path>
                <path d="M59.8608543,16.8801223 C59.6944221,16.3325688 59.1434171,16.0044343 58.5907538,16.1235474 L54.0560804,17.346789 C53.4738693,17.4996942 53.1233668,18.1013761 53.2721608,18.6923547 C53.4224623,19.2844037 54.0174874,19.6408257 54.6013568,19.4883792 C54.6025628,19.4880734 54.6037688,19.4877676 54.6048241,19.4874618 L59.1394975,18.2642202 C59.7156784,18.0840979 60.038593,17.4643731 59.8608543,16.8801223 Z" id="Path"></path>
                <path d="M59.091407,27.7015291 L54.568794,26.4477064 C53.9876382,26.2787462 53.381608,26.6197248 53.2150251,27.2091743 C53.0484422,27.7986239 53.3846231,28.4133028 53.9657789,28.582263 L58.488392,29.8360856 C59.0695477,30.0050459 59.6755779,29.6640673 59.8421608,29.0746177 C60.008593,28.4851682 59.6725628,27.8704893 59.091407,27.7015291 Z" id="Path"></path>
                <path d="M43.6813568,0.255045872 C43.100201,0.0860856269 42.4941709,0.42706422 42.3275879,1.01651376 L41.091407,5.60366972 C40.9189447,6.18944954 41.2472864,6.80626911 41.8248241,6.98119266 C41.8374874,6.98501529 41.8503015,6.98868502 41.8632663,6.99204893 C42.4415578,7.1646789 43.0483417,6.82920489 43.2185427,6.24266055 C43.2212563,6.23363914 43.2236683,6.22446483 43.2260804,6.21529052 L44.4321106,1.62813456 C44.5985427,1.03868502 44.2625126,0.424006116 43.6813568,0.255045872 Z" id="Path"></path>
            </g>
        </g>
    </g>
</svg>