<?xml version="1.0" encoding="UTF-8"?>
<svg width="90px" height="90px" viewBox="0 0 90 90" version="1.1" xmlns="http://www.w3.org/2000/svg" xmlns:xlink="http://www.w3.org/1999/xlink">
    <!-- Generator: Sketch 60 (88103) - https://sketch.com -->
    <title>undraw_female_avatar_l3ey (2)</title>
    <desc>Created with Sketch.</desc>
    <g id="Page-1" stroke="none" stroke-width="1" fill="none" fill-rule="evenodd">
        <g id="profile-loggedIn-leaderboard" transform="translate(-262.000000, -190.000000)" fill-rule="nonzero">
            <g id="3rd" transform="translate(262.000000, 190.000000)">
                <g id="undraw_female_avatar_l3ey-(2)">
                    <path d="M89.9999941,45 C89.9999941,61.0202663 81.6284024,75.0860947 69.0204036,83.0596154 C67.8435018,83.8051775 66.6301953,84.4952663 65.380484,85.1298817 C65.0982195,85.275 64.8146556,85.4147929 64.528393,85.5519231 C64.2927422,85.6664201 64.0544379,85.7782544 63.8161349,85.8887574 C61.3406586,87.0304933 58.7656692,87.9427473 56.1235314,88.6140533 C55.9517858,88.6579882 55.7786969,88.7005917 55.6056133,88.7418639 C55.4764713,88.7738166 55.3460046,88.8044379 55.2155339,88.8337278 C55.199444,88.8389745 55.1829756,88.8429803 55.1662735,88.8457101 C54.89867,88.908284 54.6310797,88.9681953 54.3608095,89.0227811 C54.2090157,89.0547337 54.0572592,89.0866864 53.9054774,89.1173077 C53.8136055,89.1372781 53.7204182,89.1545858 53.6285609,89.1718935 C53.5127166,89.1945266 53.3982355,89.2158284 53.2823938,89.2384615 C53.2184885,89.2517751 53.1545831,89.262426 53.0893464,89.2730769 C52.9428834,89.2997041 52.7964537,89.3263314 52.6513287,89.3516272 C52.4036956,89.3942308 52.1533997,89.435503 51.9044352,89.4727811 C51.7233701,89.5007396 51.5436364,89.5273669 51.3625713,89.5526627 C51.1495402,89.583284 50.9365425,89.6112426 50.7221787,89.6378698 C50.6636068,89.6471893 50.6050189,89.6538462 50.5464297,89.660503 C50.4705661,89.6698154 50.3946786,89.6791349 50.318767,89.6884615 C50.0871102,89.7164201 49.8527907,89.741716 49.6198025,89.7656805 C49.4680425,89.7816568 49.3162709,89.7963018 49.1644877,89.8096154 C48.9687777,89.8282478 48.7730756,89.8442308 48.5760262,89.8602071 C48.3363905,89.8788462 48.0980676,89.8961538 47.8570913,89.9107988 C47.7026654,89.9201183 47.5482155,89.9294379 47.3924463,89.937426 C46.9957007,89.9587278 46.5989552,89.9733728 46.1995469,89.9840237 C46.0011741,89.9893491 45.80147,89.9933432 45.6017658,89.9960059 L45.5977717,89.9960059 C45.399399,89.9986686 45.1996948,90 44.9999941,90 C33.063382,90.0060952 21.6139151,85.2669944 13.1734579,76.8265355 C4.73300076,68.3860765 -0.00609763643,56.9366087 -5.87693137e-06,45 C-5.87693137e-06,20.1474852 20.1474959,2.27373675e-13 44.9999941,2.27373675e-13 C69.8525041,2.27373675e-13 89.9999941,20.1474852 89.9999941,45 Z" id="Path" fill="#FFC107"></path>
                    <path d="M73.5057692,27.4539941 C71.1945266,29.1461538 69.1748641,31.4174556 67.4094781,34.0934911 C62.3849219,41.7075444 59.4186497,52.6034024 57.6665707,62.7843195 C57.2192334,65.3857988 56.8504464,67.9406805 56.5482275,70.3810651 C55.5070939,78.7752959 55.236837,85.8315089 55.1662749,88.8457101 C54.8986713,88.908284 54.6310811,88.9681953 54.3608108,89.0227811 C54.4073885,86.7155325 54.5738086,81.7215976 55.1609587,75.4974852 C55.2368383,74.6933379 55.3202649,73.8696692 55.4112386,73.0264793 C55.512422,72.0785503 55.6242564,71.1093195 55.7467416,70.118787 C55.9997001,68.0751479 56.297925,65.9569527 56.6507357,63.8028107 C56.7066422,63.4633136 56.7630031,63.1260355 56.8198185,62.7909763 C59.0391865,49.7715976 62.4448185,39.8849112 66.9820966,33.2494083 C68.8140493,30.5680473 70.83062,28.4205621 73.0318087,26.8069527 L73.5057692,27.4539941 Z" id="Path" fill="#000000" opacity="0.2"></path>
                    <path d="M73.0171518,62.9134615 C69.554282,65.4510355 67.6144957,71.0507396 66.5307612,76.5053254 C65.9787965,79.3551752 65.594708,82.234987 65.38048,85.1298817 C65.0982155,85.275 64.8146516,85.4147929 64.5283891,85.5519231 C64.742055,82.255654 65.1802056,78.9777872 65.8397929,75.7411243 C66.9794499,70.3384615 68.9924556,64.8692308 72.5431953,62.2677515 L73.0171518,62.9134615 Z" id="Path" fill="#000000" opacity="0.2"></path>
                    <circle id="Oval" fill="#000000" opacity="0.2" cx="77.9829044" cy="23.4295123" r="4.0058747"></circle>
                    <circle id="Oval" fill="#000000" opacity="0.2" cx="76.6928609" cy="57.9129803" r="4.0058747"></circle>
                    <path d="M62.0794318,30.1581732 C62.9289013,34.9507158 61.0536768,39.2902775 61.0536768,39.2902775 C61.0536768,39.2902775 57.8011899,35.8595933 56.9517204,31.0670507 C56.1022509,26.2745081 57.9774768,21.9349464 57.9774768,21.9349464 C57.9774768,21.9349464 61.2299636,25.3656306 62.0794318,30.1581732 Z" id="Path" fill="#000000" opacity="0.2"></path>
                    <path d="M75.3926192,41.5346299 C70.8213994,43.2061536 66.2279618,42.133476 66.2279618,42.133476 C66.2279618,42.133476 69.0459364,38.3507081 73.6171562,36.6791778 C78.188376,35.0076475 82.7818123,36.0803317 82.7818123,36.0803317 C82.7818123,36.0803317 79.9638391,39.8630996 75.3926192,41.5346299 Z" id="Path" fill="#000000" opacity="0.2"></path>
                    <path d="M76.1677802,72.0709615 C72.9637269,73.2425698 69.7395515,72.4782781 69.7395515,72.4782781 C69.7395515,72.4782781 71.71018,69.8144365 74.9142346,68.6428283 C78.1182892,67.47122 81.3424633,68.2355117 81.3424633,68.2355117 C81.3424633,68.2355117 79.3718348,70.8993533 76.1677802,72.0709615 Z" id="Path" fill="#000000" opacity="0.2"></path>
                    <path d="M24.2112568,23.9882951 C30.7183141,12.9933839 43.5920112,12.480971 43.5920112,12.480971 C43.5920112,12.480971 56.1366905,10.8767689 64.1840246,27.622157 C71.684779,43.2302339 82.0367827,58.3001521 65.8506129,61.9538898 L62.9269203,52.854051 L61.1162933,62.6313621 C58.811694,62.7971158 56.4997507,62.8366276 54.1908333,62.7497201 C36.8567494,62.1900759 20.3486538,62.9134615 20.880193,56.6932633 C21.5867809,48.4243935 17.9501618,34.5675994 24.2112568,23.9882951 Z" id="Path" fill="#2F2E41"></path>
                    <circle id="Oval" fill="#D0CDE1" cx="44.8596146" cy="37.5656126" r="16.4587034"></circle>
                    <path d="M52.7841759,46.7093343 C52.7841759,46.7093343 46.0787765,66.2159463 54.0033391,71.7021746 C61.9279016,77.1884028 41.2021251,80.845907 35.7158876,77.1884175 C30.22965,73.530928 25.9625822,67.4351121 25.9625822,67.4351121 C25.9625822,67.4351121 39.982962,53.4147337 36.9350534,45.4901738 L52.7841759,46.7093343 Z" id="Path" fill="#D0CDE1"></path>
                    <path d="M64.9757396,75.968787 L63.8161243,85.8887574 C61.3406479,87.0304933 58.7656586,87.9427473 56.1235207,88.6140533 C55.9517751,88.6579882 55.7786862,88.7005917 55.6056027,88.7418639 C55.4764607,88.7738166 55.3459939,88.8044379 55.2155232,88.8337278 C55.1994333,88.8389745 55.182965,88.8429803 55.1662629,88.8457101 C54.8986593,88.908284 54.6310691,88.9681953 54.3607988,89.0227811 C54.209005,89.0547337 54.0572485,89.0866864 53.9054667,89.1173077 C53.8135948,89.1372781 53.7204075,89.1545858 53.6285503,89.1718935 C53.5127059,89.1945266 53.3982249,89.2158284 53.2823831,89.2384615 C53.2184778,89.2517751 53.1545725,89.262426 53.0893358,89.2730769 C52.9428728,89.2997041 52.796443,89.3263314 52.651318,89.3516272 C52.4036849,89.3942308 52.1533891,89.435503 51.9044246,89.4727811 C51.7233595,89.5007396 51.5436257,89.5273669 51.3625607,89.5526627 C51.1495296,89.583284 50.9365318,89.6112426 50.722168,89.6378698 C50.6635962,89.6471893 50.6050083,89.6538462 50.5464191,89.660503 C50.4705555,89.6698154 50.3946679,89.6791349 50.3187564,89.6884615 C50.0870996,89.7164201 49.85278,89.741716 49.6197919,89.7656805 C49.4680318,89.7816568 49.3162602,89.7963018 49.1644771,89.8096154 C48.968767,89.8282478 48.7730649,89.8442308 48.5760155,89.8602071 C48.3363799,89.8788462 48.098057,89.8961538 47.8570806,89.9107988 C47.7026547,89.9201183 47.5482049,89.9294379 47.3924357,89.937426 C46.9956901,89.9587278 46.5989445,89.9733728 46.1995362,89.9840237 C46.0011635,89.9893491 45.8014593,89.9933432 45.6017552,89.9960059 L45.5977611,89.9960059 C45.3993883,89.9986686 45.1996842,90 44.99998,90 C28.680534,89.9949281 13.6404659,81.1625953 5.6862426,66.9128698 C7.6929778,65.5376261 9.78226411,64.2868999 11.9423077,63.1677515 C12.630628,62.8202663 13.5639053,62.6072485 14.6303334,62.4980769 C17.0387654,62.2477811 20.1594635,62.5273669 22.8661322,63.0399408 C25.3344754,63.5032544 27.4619902,64.1622781 28.400609,64.7840237 C30.8396543,66.3989645 40.5932126,71.7017751 40.5932126,71.7017751 C40.5932126,71.7017751 49.1232355,72.9213018 52.5688043,70.3810651 C52.5701357,70.3810651 52.5701357,70.3797337 52.571467,70.3797337 C53.3835972,69.7779586 54.5072538,69.7739645 55.7467629,70.118787 C56.009041,70.1920118 56.2762007,70.2794379 56.5482422,70.3810651 C57.3047499,70.6739862 58.0381759,71.0233426 58.742325,71.4261834 C58.7583173,71.435503 58.7729463,71.4434911 58.7889359,71.4528107 C59.0378831,71.5926036 59.2855336,71.7390533 59.530496,71.889497 C62.4314996,73.6575444 64.9757396,75.968787 64.9757396,75.968787 Z" id="Path" fill="#2F2E41"></path>
                    <path d="M15.7433432,79.1920118 C15.3492604,71.8721893 14.9019138,65.8757396 14.6303254,62.4980769 C17.0387574,62.2477811 20.1594555,62.5273669 22.8661243,63.0399408 C25.0695333,67.4547337 30.035503,77.6449704 34.6060558,88.793787 C27.6426972,87.1433579 21.1751607,83.8511574 15.7433432,79.1920118 L15.7433432,79.1920118 Z" id="Path" fill="#2F2E41"></path>
                    <path d="M58.5745562,71.3968935 L58.7369822,71.4807692 C58.7210139,71.6538462 58.6823964,71.760355 58.5745562,71.3968935 Z" id="Path" fill="#2F2E41"></path>
                    <path d="M58.7889146,71.4528107 C58.790246,71.4714497 58.7928967,71.4914201 58.7942294,71.5100592 L58.7369729,71.4807692 C58.7383043,71.4634615 58.7396357,71.4448225 58.7422984,71.4261834 C58.7556306,71.1931953 58.7396383,70.9176036 58.7889146,71.4528107 Z" id="Path" fill="#2F2E41"></path>
                    <path d="M69.0204036,83.0596154 C67.8435018,83.8051775 66.6301953,84.4952663 65.380484,85.1298817 C65.0982195,85.275 64.8146556,85.4147929 64.528393,85.5519231 C64.2927422,85.6664201 64.0544379,85.7782544 63.8161349,85.8887574 C61.3406586,87.0304933 58.7656692,87.9427473 56.1235314,88.6140533 C58.0420105,82.4192308 59.257555,76.3029586 58.7942334,71.5100592 L59.530476,71.889497 L63.078553,73.7174556 C64.0997671,74.2424328 65.0316606,74.9254027 65.8397929,75.7411243 C66.0829557,75.9839474 66.313578,76.2390124 66.5307612,76.5053254 C68.031074,78.3276762 68.9024602,80.5859881 69.0150888,82.943787 C69.0164201,82.9823964 69.0190709,83.0210059 69.0204036,83.0596154 Z" id="Path" fill="#2F2E41"></path>
                    <path d="M28.9168509,22.9284133 L41.6354379,16.2662831 L49.6151001,17.5044981 C55.3993885,18.4020541 60.0483647,22.7420577 61.3409725,28.4510649 L62.8331179,35.0413695 L53.7872858,34.6934436 L51.2602216,28.7969592 L51.2602216,34.5962476 L47.0862719,34.4356975 L44.6636743,25.0481743 L43.1495774,35.0413695 L28.3111828,34.7385355 L28.9168509,22.9284133 Z" id="Path" fill="#2F2E41"></path>
                </g>
            </g>
        </g>
    </g>
</svg>