<?xml version="1.0" encoding="UTF-8"?>
<svg width="90px" height="90px" viewBox="0 0 90 90" version="1.1" xmlns="http://www.w3.org/2000/svg" xmlns:xlink="http://www.w3.org/1999/xlink">
    <!-- Generator: Sketch 60 (88103) - https://sketch.com -->
    <title>undraw_male_avatar_323b (2)</title>
    <desc>Created with Sketch.</desc>
    <g id="Page-1" stroke="none" stroke-width="1" fill="none" fill-rule="evenodd">
        <g id="profile-loggedIn-leaderboard" transform="translate(-24.000000, -186.000000)" fill-rule="nonzero">
            <g id="2nd" transform="translate(24.000000, 186.000000)">
                <g id="undraw_male_avatar_323b-(2)">
                    <path d="M90.0000391,44.9335303 C90.0080387,51.0161586 88.7749772,57.0366606 86.3760355,62.6277696 L86.2269231,62.9707533 C77.876011,81.9406432 57.6331363,92.765788 37.191568,89.1930576 C36.9213018,89.1451994 36.6514793,89.0955687 36.3821006,89.0441654 C33.5986529,88.5053768 30.8730023,87.702778 28.2421598,86.6472674 C27.8147929,86.4757755 27.3905325,86.2980798 26.9693787,86.1141802 C26.6818047,85.9892171 26.3942308,85.8602659 26.1093195,85.7273264 C10.1961828,78.3629462 0.00934188257,62.4467937 0,44.9335303 C0,20.1177253 20.1474852,5.68434189e-14 45,5.68434189e-14 C69.8525148,5.68434189e-14 90.0000391,20.1177253 90.0000391,44.9335303 Z" id="Path" fill="#6C63FF"></path>
                    <path d="M37.191568,89.1930576 C36.9213018,89.1451994 36.6514793,89.0955687 36.3821006,89.0441654 C36.2063609,83.9512555 35.6032544,73.4982275 33.5462951,62.5506647 C32.4213018,56.5590842 30.8596154,50.4172821 28.6934911,44.9268833 C27.9513898,43.0271393 27.1037722,41.1701946 26.1545858,39.3646972 C23.9658284,35.2369276 21.3110947,31.7618907 18.0918639,29.4075332 L18.5658284,28.7614476 C21.2431953,30.7209749 23.6494083,33.471935 25.7844675,37.0143279 C26.4248521,38.0751846 27.039943,39.2069424 27.6297404,40.4096012 C28.2621368,41.6964549 28.8652433,43.0626292 29.4390599,44.5081241 C29.8051842,45.428065 30.1588824,46.3799114 30.5001546,47.3636632 C31.9859534,51.6350074 33.2489712,56.5085672 34.2892078,61.9843427 C34.5195386,63.1940916 34.7387694,64.4335303 34.9469001,65.7026588 C36.5591716,75.5361891 37.0451183,84.6279173 37.191568,89.1930576 Z" id="Path" fill="#000000" opacity="0.2"></path>
                    <path d="M26.9693787,86.1141802 C26.6818047,85.9892171 26.3942308,85.8602659 26.1093195,85.7273264 C25.8310651,82.7096012 25.3198225,78.9660266 24.3852071,75.4125554 C23.9758676,73.8165955 23.4503577,72.2526138 22.8128698,70.7330871 C21.7464497,68.2404727 20.3658284,66.121418 18.5804734,64.8146233 L19.0544379,64.1698671 C20.9236686,65.5364845 22.3655325,67.6967504 23.4798817,70.2239291 C24.735355,73.0714919 25.5727811,76.3856721 26.1306213,79.5522895 C26.5446746,81.9039882 26.8056213,84.1759232 26.9693787,86.1141802 Z" id="Path" fill="#000000" opacity="0.2"></path>
                    <ellipse id="Oval" fill="#000000" opacity="0.2" cx="13.6147287" cy="25.388996" rx="4.0058747" ry="3.99995761"></ellipse>
                    <ellipse id="Oval" fill="#000000" opacity="0.2" cx="14.9047722" cy="59.8215284" rx="4.0058747" ry="3.99995761"></ellipse>
                    <path d="M29.5182013,32.107718 C28.6687318,36.8931815 30.5439564,41.2263332 30.5439564,41.2263332 C30.5439564,41.2263332 33.7964432,37.8007165 34.6459127,33.015253 C35.4953822,28.2297895 33.6201564,23.8966378 33.6201564,23.8966378 C33.6201564,23.8966378 30.3676695,27.3222545 29.5182013,32.107718 Z" id="Path" fill="#000000" opacity="0.2"></path>
                    <path d="M16.2050139,43.4673705 C20.7762337,45.1364251 25.3696713,44.0653321 25.3696713,44.0653321 C25.3696713,44.0653321 22.5516967,40.2881517 17.9804769,38.6190904 C13.4092571,36.9500291 8.81582086,38.0211288 8.81582086,38.0211288 C8.81582086,38.0211288 11.6337941,41.7983092 16.2050139,43.4673705 Z" id="Path" fill="#000000" opacity="0.2"></path>
                    <path d="M15.429853,73.9585968 C18.6339062,75.1284744 21.8580817,74.3653117 21.8580817,74.3653117 C21.8580817,74.3653117 19.8874531,71.7054062 16.6833985,70.5355258 C13.4793439,69.3656455 10.2551698,70.1288109 10.2551698,70.1288109 C10.2551698,70.1288109 12.2257984,72.7887191 15.429853,73.9585968 Z" id="Path" fill="#000000" opacity="0.2"></path>
                    <ellipse id="Oval" fill="#D0CDE1" cx="44.9076142" cy="37.3664579" rx="17.5433618" ry="17.5174484"></ellipse>
                    <path d="M38.0547386,50.7782539 C38.0547386,50.7782539 40.2476592,61.1792388 40.2476592,62.2740789 C40.2476592,63.3689189 50.6640302,68.2957037 50.6640302,68.2957037 L59.9839349,66.6534417 L63.2733284,56.7998761 C63.2733284,56.7998761 57.7910277,48.5885725 57.7910277,45.3040511 L38.0547386,50.7782539 Z" id="Path" fill="#D0CDE1"></path>
                    <path d="M86.3760355,62.6277696 L86.2269231,62.9707533 C77.876011,81.9406432 57.6331363,92.765788 37.191568,89.1930576 C36.9213018,89.1451994 36.6514793,89.0955687 36.3821006,89.0441654 C33.5986529,88.5053768 30.8730023,87.702778 28.2421598,86.6472674 C27.8147929,86.4757755 27.3905325,86.2980798 26.9693787,86.1141802 C26.6818047,85.9892171 26.3942308,85.8602659 26.1093195,85.7273264 C23.5268555,84.5326786 21.0638714,83.0957973 18.7535503,81.4360414 L16.6739645,75.4125554 L17.8428994,74.5218678 L20.2473373,72.6886329 L22.8128698,70.7330938 L23.4798817,70.2239357 L33.5463018,62.5506713 L34.2892012,61.9843493 L39.5214497,57.9961662 L39.5227811,57.9948368 C39.5227811,57.9948368 45.1810651,67.2008929 53.4048817,64.4636699 C61.6286982,61.7264468 61.4489645,53.8777024 61.4489645,53.8777024 L86.3760355,62.6277696 Z" id="Path" fill="#2F2E41"></path>
                    <path d="M29.6940595,23.2532349 C29.6940595,23.2532349 35.2640117,11.2028318 45.9397531,13.9836935 C56.6154945,16.7645552 62.6496084,20.9358492 63.1137768,25.1071431 C63.5779451,29.2784371 62.8816953,35.5353753 62.8816953,35.5353753 C62.8816953,35.5353753 61.7212811,26.9610474 54.2946834,28.8149583 C46.8680858,30.6688693 35.2640143,29.2784357 35.2640143,29.2784357 L33.4073609,45.9636102 C33.4073609,45.9636102 31.3186287,42.9510097 28.9978163,44.804918 C26.6770038,46.6588263 22.2674578,26.9610487 29.6940595,23.2532349 Z" id="Path" fill="#2F2E41"></path>
                    <path d="M28.2421598,86.6472674 C27.8147929,86.4757755 27.3905325,86.2980798 26.9693787,86.1141802 C26.6818047,85.9892171 26.3942308,85.8602659 26.1093195,85.7273264 C21.8381976,83.749697 17.9034372,81.1166422 14.447929,77.9237814 C15.6714497,76.2593796 16.6739645,75.4125554 16.6739645,75.4125554 L24.8977811,75.4125554 L26.1306213,79.5522895 L28.2421598,86.6472674 Z" id="Path" fill="#2F2E41"></path>
                    <path d="M79.1720414,61.7264402 L86.2269231,62.9707533 C84.3389511,67.2653802 81.7891311,71.2383185 78.6701183,74.7451994 L79.1720414,61.7264402 Z" id="Path" fill="#2F2E41"></path>
                </g>
            </g>
        </g>
    </g>
</svg>